# xmcd CD database file
#
# Track frame offsets:
#	183
#	10343
#	26830
#	45940
#	61428
#	80770
#	94768
#	118410
#	139073
#	160198
#	179138
#	196740
#	218485
#	228400
#	239963
#	247150
#	269250
#
# Disc length: 3687 seconds
#
# Revision: 18
# Processed by: cddbd v1.5.2PL0 Copyright (c) Steve Scherf et al.
# Submitted via: CDex 1.70beta2
#
DISCID=fa0e6511
DTITLE=Georges Brassens - Mourir pour des idées
DYEAR=1988
DGENRE=Folk
TTITLE0=Heureux qui comme Ulysse
TTITLE1=Fernande
TTITLE2=Stances à un cambrioleur
TTITLE3=La ballade des gens qui sont nés quelque part
TTITLE4=La princesse et le croque-notes
TTITLE5=Sauf le respect que je vous dois
TTITLE6=Le blason
TTITLE7=Quatre-vingt-quinze pour cent
TTITLE8=Mourir pour des idées
TTITLE9=Les passantes
TTITLE10=Le roi
TTITLE11=À l'ombre des maris
TTITLE12=Carcassonne
TTITLE13=Ballade à la lune
TTITLE14=Jehan l'advenu
TTITLE15=À mon frère revenant d'Italie
TTITLE16=Le roi boîteux
EXTD=Album faisant partie de l'intégrale de Georges Brassens qui s'intitule "Mourir pour des idées" et non "J'ai rendez vous avec vous" \nIntégrale edition 1991. Corrigé capitalisation\n YEAR: 1988
EXTT0=
EXTT1=
EXTT2=
EXTT3=
EXTT4=
EXTT5=
EXTT6=
EXTT7=
EXTT8=
EXTT9=
EXTT10=
EXTT11=
EXTT12=
EXTT13=
EXTT14=
EXTT15=
EXTT16=
PLAYORDER=
